# xmcd CD database file
#
# Track frame offsets:
#	150
#	21014
#	30674
#	45924
#	65431
#	77575
#	93839
#	106147
#	116312
#	132786
#	147620
#
# Disc length: 2118 seconds
#
# Revision: 0
# Processed by: cddbd v1.5.1PL2 Copyright (c) Steve Scherf et al.
# Submitted via: CDex 1.51
#
DISCID=8008440b
DTITLE=Arimatea Ayres - Efeito Sanfona
DYEAR=2005
DGENRE=Salsa
TTITLE0=Recife Antigo
TTITLE1=Madeira Que Cupim Não Rói
TTITLE2=Último Regresso
TTITLE3=Evocação No. 1
TTITLE4=Paraquedista/Panomarama de Folião
TTITLE5=Não Diga Adeus Ainda
TTITLE6=A Dor de Uma Saudade
TTITLE7=Hino dos Batutas de São José
TTITLE8=O Bom Sebastião
TTITLE9=Valores do Passado
TTITLE10=Hino de Pernambuco
EXTD=YEAR: 2005
EXTT0=
EXTT1=
EXTT2=
EXTT3=
EXTT4=
EXTT5=
EXTT6=
EXTT7=
EXTT8=
EXTT9=
EXTT10=
PLAYORDER=
